<?xml version="1.0" standalone="no"?>
<!DOCTYPE svg PUBLIC "-//W3C//DTD SVG 20010904//EN"
 "http://www.w3.org/TR/2001/REC-SVG-20010904/DTD/svg10.dtd">
<svg version="1.0" xmlns="http://www.w3.org/2000/svg"
 width="300.000000pt" height="300.000000pt" viewBox="0 0 300.000000 300.000000"
 preserveAspectRatio="xMidYMid meet">
<metadata>
Created by potrace 1.11, written by Peter Selinger 2001-2013
</metadata>
<g transform="translate(0.000000,300.000000) scale(0.100000,-0.100000)"
fill="#000000" stroke="none">
<path d="M0 1500 l0 -1500 1500 0 1500 0 0 1500 0 1500 -1500 0 -1500 0 0
-1500z m811 782 l97 -277 -92 -3 -92 -3 -99 -462 c-112 -522 -119 -588 -77
-682 29 -63 64 -100 122 -130 71 -36 146 -45 371 -45 189 0 208 2 213 18 3 9
64 296 136 637 72 341 134 628 137 639 5 18 17 18 282 13 288 -5 394 -17 527
-58 150 -46 284 -140 354 -249 18 -28 44 -85 58 -128 22 -67 25 -94 25 -207 0
-416 -223 -708 -641 -839 -162 -51 -222 -55 -837 -57 -552 -2 -573 -1 -657 19
-114 28 -198 71 -268 138 -95 90 -140 200 -140 339 0 88 1 92 111 612 49 233
89 427 89 433 0 5 -40 11 -88 12 l-88 3 224 278 c124 152 227 277 231 277 3 0
49 -125 102 -278z"/>
<path d="M1766 1739 c-3 -8 -52 -241 -111 -519 -58 -278 -109 -513 -111 -522
-5 -16 5 -18 104 -18 325 0 511 58 657 205 110 109 158 221 172 395 18 240
-95 389 -337 445 -103 23 -368 33 -374 14z"/>
</g>
</svg>
